<?xml version="1.0" encoding="UTF-8" standalone="no"?>
<!-- Created with Inkscape (http://www.inkscape.org/) -->

<svg
   xmlns:dc="http://purl.org/dc/elements/1.1/"
   xmlns:cc="http://creativecommons.org/ns#"
   xmlns:rdf="http://www.w3.org/1999/02/22-rdf-syntax-ns#"
   xmlns:svg="http://www.w3.org/2000/svg"
   xmlns="http://www.w3.org/2000/svg"
   xmlns:sodipodi="http://sodipodi.sourceforge.net/DTD/sodipodi-0.dtd"
   xmlns:inkscape="http://www.inkscape.org/namespaces/inkscape"
   width="282.62506"
   height="82.596138"
   id="svg2"
   version="1.1"
   inkscape:version="0.48.4 r9939"
   sodipodi:docname="新規ドキュメント 1">
  <defs
     id="defs4" />
  <sodipodi:namedview
     id="base"
     pagecolor="#ffffff"
     bordercolor="#666666"
     borderopacity="1.0"
     inkscape:pageopacity="0.0"
     inkscape:pageshadow="2"
     inkscape:zoom="2.8284271"
     inkscape:cx="214.05361"
     inkscape:cy="2.2588292"
     inkscape:document-units="px"
     inkscape:current-layer="layer1"
     showgrid="false"
     fit-margin-top="0"
     fit-margin-left="0"
     fit-margin-right="0"
     fit-margin-bottom="0"
     inkscape:window-width="1918"
     inkscape:window-height="1060"
     inkscape:window-x="1680"
     inkscape:window-y="18"
     inkscape:window-maximized="0" />
  <metadata
     id="metadata7">
    <rdf:RDF>
      <cc:Work
         rdf:about="">
        <dc:format>image/svg+xml</dc:format>
        <dc:type
           rdf:resource="http://purl.org/dc/dcmitype/StillImage" />
        <dc:title></dc:title>
      </cc:Work>
    </rdf:RDF>
  </metadata>
  <g
     inkscape:label="レイヤー 1"
     inkscape:groupmode="layer"
     id="layer1"
     transform="translate(-47.652516,-348.49764)">
    <path
       style="fill:#333333;fill-opacity:1;fill-rule:nonzero;stroke:none"
       d="m 47.652516,348.49764 0,20.97058 13.743566,-20.97058 -13.743566,0 z m 26.837927,0 -26.837927,40.97347 0,21.08082 40.654988,-62.05429 -13.817061,0 z m 26.911417,0 -6.810533,10.39955 13.817063,0 6.81054,-10.39955 -13.81707,0 z m 26.89918,0 -6.81054,10.39955 13.81706,0 6.81054,-10.39955 -13.81706,0 z m 26.92367,0 -6.81054,10.39955 13.80482,0 6.81053,-10.39955 -13.80481,0 z m 26.91142,0 -6.81053,10.39955 13.80481,0 6.81053,-10.39955 -13.80481,0 z m 26.91142,0 -6.81053,10.39955 13.81706,0 6.81054,-10.39955 -13.81707,0 z m 26.93592,0 -6.81053,10.39955 13.81706,0 6.81054,-10.39955 -13.81707,0 z m 26.91143,0 -6.81054,10.39955 13.81706,0 6.81054,-10.39955 -13.81706,0 z m 26.89917,0 -6.81054,10.39955 4.74043,0 0,13.85381 15.88717,-24.25336 -13.81706,0 z m 26.91142,0 -28.98153,44.25625 0,21.09306 42.55361,-64.98183 0,-0.36748 -13.57208,0 z m 13.57208,20.38262 -40.74073,62.21352 13.80481,0 26.93592,-41.1327 0,-21.08082 z m -243.39097,1.77613 -39.234084,59.89843 0,0.53896 13.461835,0 25.772249,-39.34433 0,-21.09306 z m 243.39097,39.31983 -13.82931,21.11756 13.80481,0 0.0245,-0.0245 0,-21.09307 z m -243.39097,1.76388 -12.677888,19.35368 13.817061,0 5.573371,-8.50092 -6.712544,0 0,-10.85276 z m 19.81915,10.85276 -5.57337,8.50092 13.80481,0 5.57338,-8.50092 -13.80482,0 z m 26.91143,0 -5.57338,8.50092 13.80482,0 5.57337,-8.50092 -13.80481,0 z m 26.91142,0 -5.57337,8.50092 13.81706,0 5.57337,-8.50092 -13.81706,0 z m 26.91142,0 -5.57337,8.50092 13.81706,0 5.57337,-8.50092 -13.81706,0 z m 26.92367,0 -5.57337,8.50092 13.80481,0 5.57338,-8.50092 -13.80482,0 z m 26.91142,0 -5.57337,8.50092 13.81706,0 5.57338,-8.50092 -13.81707,0 z m 26.91143,0 -5.57338,8.50092 13.81707,0 5.56112,-8.50092 -13.80481,0 z"
       id="rect2993"
       inkscape:connector-curvature="0" />
    <text
       xml:space="preserve"
       style="font-size:49.27496719px;font-style:normal;font-variant:normal;font-weight:bold;font-stretch:normal;text-align:center;line-height:125%;letter-spacing:0px;word-spacing:0px;text-anchor:middle;fill:#333333;fill-opacity:1;stroke:none;font-family:Raleway;-inkscape-font-specification:Raleway Bold"
       x="186.99084"
       y="405.55096"
       id="text2989"
       sodipodi:linespacing="125%"><tspan
         sodipodi:role="line"
         id="tspan2991"
         x="186.99084"
         y="405.55096"
         dx="0 -1.9162482 -2.1626232 0.37999997 -2.7648723 -2.0120606 1.560374">ippusbd</tspan></text>
  </g>
</svg>
